<?xml version="1.0" encoding="UTF-8" standalone="no"?>
<!DOCTYPE svg PUBLIC "-//W3C//DTD SVG 1.1//EN" "http://www.w3.org/Graphics/SVG/1.1/DTD/svg11.dtd">
<svg width="100%" height="100%" viewBox="0 0 320 300" version="1.1" xmlns="http://www.w3.org/2000/svg" xmlns:xlink="http://www.w3.org/1999/xlink" xml:space="preserve" xmlns:serif="http://www.serif.com/" style="fill-rule:evenodd;clip-rule:evenodd;stroke-linejoin:round;stroke-miterlimit:2;">
    <g>
        <g transform="matrix(0.6,0,0,0.6,-1.06581e-14,0)">
            <rect x="0" y="0" width="50" height="50"/>
        </g>
        <g transform="matrix(0.6,0,0,0.6,45,0)">
            <rect x="0" y="0" width="50" height="50"/>
        </g>
        <g transform="matrix(0.6,0,0,0.577265,90,0.568376)">
            <rect x="0" y="0" width="50" height="50"/>
        </g>
        <g transform="matrix(0.5,0,0,0.52,133.25,2)">
            <rect x="0" y="0" width="50" height="50"/>
        </g>
        <g transform="matrix(0.45,0,0,0.456813,171.5,3.57969)">
            <rect x="0" y="0" width="50" height="50"/>
        </g>
        <g transform="matrix(0.377067,0,0,0.382775,204.027,5.43063)">
            <rect x="0" y="0" width="50" height="50"/>
        </g>
        <g transform="matrix(0.260734,0,0,0.264682,232.908,8.38296)">
            <rect x="0" y="0" width="50" height="50"/>
        </g>
    </g>
    <g transform="matrix(1,0,0,1,5.68434e-14,128.09)">
        <g transform="matrix(0.6,0,0,0.6,-1.06581e-14,51.9099)">
            <rect x="0" y="0" width="50" height="50"/>
        </g>
        <g transform="matrix(0.6,0,0,0.6,45,51.9099)">
            <rect x="0" y="0" width="50" height="50" style="fill:rgb(255,71,37);"/>
        </g>
        <g transform="matrix(0.6,0,0,0.577265,90,52.4783)">
            <rect x="0" y="0" width="50" height="50" style="fill:rgb(255,71,37);"/>
        </g>
        <g transform="matrix(0.5,0,0,0.52,134,53.9099)">
            <rect x="0" y="0" width="50" height="50" style="fill:rgb(255,71,37);"/>
        </g>
        <g transform="matrix(0.45,0,0,0.456813,171.5,55.4896)">
            <rect x="0" y="0" width="50" height="50" style="fill:rgb(255,71,37);"/>
        </g>
        <g transform="matrix(0.377067,0,0,0.382775,204.323,57.3405)">
            <rect x="0" y="0" width="50" height="50" style="fill:rgb(255,71,37);"/>
        </g>
        <g transform="matrix(0.260734,0,0,0.264682,232.908,60.2929)">
            <rect x="0" y="0" width="50" height="50" style="fill:rgb(255,71,37);"/>
        </g>
    </g>
    <g transform="matrix(1,0,0,1,5.68434e-14,132.903)">
        <g transform="matrix(0.6,0,0,0.6,-1.06581e-14,92.0973)">
            <rect x="0" y="0" width="50" height="50"/>
        </g>
        <g transform="matrix(0.6,0,0,0.6,45,92.0973)">
            <rect x="0" y="0" width="50" height="50" style="fill:rgb(255,71,37);"/>
        </g>
        <g transform="matrix(0.6,0,0,0.577265,90,92.6657)">
            <rect x="0" y="0" width="50" height="50" style="fill:rgb(255,71,37);"/>
        </g>
        <g transform="matrix(0.5,0,0,0.52,134,94.0973)">
            <rect x="0" y="0" width="50" height="50" style="fill:rgb(255,71,37);"/>
        </g>
        <g transform="matrix(0.45,0,0,0.456813,171.5,95.677)">
            <rect x="0" y="0" width="50" height="50" style="fill:rgb(255,71,37);"/>
        </g>
        <g transform="matrix(0.377067,0,0,0.382775,204.323,97.5279)">
            <rect x="0" y="0" width="50" height="50" style="fill:rgb(255,71,37);"/>
        </g>
        <g transform="matrix(0.260734,0,0,0.264682,232.908,100.48)">
            <rect x="0" y="0" width="50" height="50" style="fill:rgb(255,71,37);"/>
        </g>
    </g>
    <g>
        <g transform="matrix(0.6,0,0,0.6,-1.06581e-14,135)">
            <rect x="0" y="0" width="50" height="50"/>
        </g>
        <g transform="matrix(0.6,0,0,0.6,45,135)">
            <rect x="0" y="0" width="50" height="50"/>
        </g>
        <g transform="matrix(0.6,0,0,0.577265,90,135.568)">
            <rect x="0" y="0" width="50" height="50"/>
        </g>
        <g transform="matrix(0.5,0,0,0.52,134,137)">
            <rect x="0" y="0" width="50" height="50"/>
        </g>
        <g transform="matrix(0.45,0,0,0.456813,171.5,138.58)">
            <rect x="0" y="0" width="50" height="50"/>
        </g>
        <g transform="matrix(0.377067,0,0,0.382775,204.323,140.431)">
            <rect x="0" y="0" width="50" height="50"/>
        </g>
        <g transform="matrix(0.260734,0,0,0.264682,232.908,143.383)">
            <rect x="0" y="0" width="50" height="50"/>
        </g>
    </g>
    <g transform="matrix(1,0,0,1,0,-132.903)">
        <g transform="matrix(0.6,0,0,0.6,-1.06581e-14,177.903)">
            <rect x="0" y="0" width="50" height="50"/>
        </g>
        <g transform="matrix(0.6,0,0,0.6,45,177.903)">
            <rect x="0" y="0" width="50" height="50" style="fill:rgb(70,181,237);"/>
        </g>
        <g transform="matrix(0.6,0,0,0.577265,90,178.471)">
            <rect x="0" y="0" width="50" height="50" style="fill:rgb(70,181,237);"/>
        </g>
        <g transform="matrix(0.5,0,0,0.52,134,179.903)">
            <rect x="0" y="0" width="50" height="50" style="fill:rgb(70,181,237);"/>
        </g>
        <g transform="matrix(0.45,0,0,0.456813,171.5,181.482)">
            <rect x="0" y="0" width="50" height="50" style="fill:rgb(70,181,237);"/>
        </g>
        <g transform="matrix(0.377067,0,0,0.382775,204.323,183.333)">
            <rect x="0" y="0" width="50" height="50" style="fill:rgb(70,181,237);"/>
        </g>
        <g transform="matrix(0.260734,0,0,0.264682,232.908,186.286)">
            <rect x="0" y="0" width="50" height="50" style="fill:rgb(70,181,237);"/>
        </g>
    </g>
    <g transform="matrix(1,0,0,1,0,-128.09)">
        <g transform="matrix(0.6,0,0,0.6,-1.06581e-14,218.09)">
            <rect x="0" y="0" width="50" height="50"/>
        </g>
        <g transform="matrix(0.6,0,0,0.6,45,218.09)">
            <rect x="0" y="0" width="50" height="50" style="fill:rgb(70,181,237);"/>
        </g>
        <g transform="matrix(0.6,0,0,0.577265,90,218.658)">
            <rect x="0" y="0" width="50" height="50" style="fill:rgb(70,181,237);"/>
        </g>
        <g transform="matrix(0.5,0,0,0.52,134,220.09)">
            <rect x="0" y="0" width="50" height="50" style="fill:rgb(70,181,237);"/>
        </g>
        <g transform="matrix(0.45,0,0,0.456813,171.5,221.67)">
            <rect x="0" y="0" width="50" height="50" style="fill:rgb(70,181,237);"/>
        </g>
        <g transform="matrix(0.377067,0,0,0.382775,204.323,223.521)">
            <rect x="0" y="0" width="50" height="50" style="fill:rgb(70,181,237);"/>
        </g>
        <g transform="matrix(0.260734,0,0,0.264682,232.908,226.473)">
            <rect x="0" y="0" width="50" height="50" style="fill:rgb(70,181,237);"/>
        </g>
    </g>
    <g transform="matrix(1,0,0,1,1.06581e-14,11.617)">
        <g transform="matrix(0.6,0,0,0.6,-1.06581e-14,258.383)">
            <rect x="0" y="0" width="50" height="50"/>
        </g>
        <g transform="matrix(0.6,0,0,0.6,45,258.383)">
            <rect x="0" y="0" width="50" height="50"/>
        </g>
        <g transform="matrix(0.6,0,0,0.577265,90,258.951)">
            <rect x="0" y="0" width="50" height="50"/>
        </g>
        <g transform="matrix(0.5,0,0,0.52,133.25,260.383)">
            <rect x="0" y="0" width="50" height="50"/>
        </g>
        <g transform="matrix(0.45,0,0,0.456813,171.5,261.963)">
            <rect x="0" y="0" width="50" height="50"/>
        </g>
        <g transform="matrix(0.377067,0,0,0.382775,204.323,263.814)">
            <rect x="0" y="0" width="50" height="50"/>
        </g>
        <g transform="matrix(0.260734,0,0,0.264682,232.908,266.766)">
            <rect x="0" y="0" width="50" height="50"/>
        </g>
    </g>
</svg>
